HIERARCHY
ROOT Hips
{
	OFFSET 0.00 0.00 0.00
	CHANNELS 6 Xposition Yposition Zposition Yrotation Xrotation Zrotation
	JOINT LHipJoint
	{
		OFFSET	0.0000	0.0000	0.0000
		CHANNELS 3 Yrotation Xrotation Zrotation
		JOINT LeftUpLeg
		{
			OFFSET	1.0138	-0.0809	-0.0827
			CHANNELS 3 Yrotation Xrotation Zrotation
			JOINT LeftLeg
			{
				OFFSET	0.4110	-3.9095	0.3245
				CHANNELS 3 Yrotation Xrotation Zrotation
				JOINT LeftFoot
				{
					OFFSET	0.3810	-4.0555	-0.1470
					CHANNELS 3 Yrotation Xrotation Zrotation
					JOINT LeftToeBase
					{
						OFFSET	0.1396	-0.4462	1.3079
						CHANNELS 3 Yrotation Xrotation Zrotation
						End Site
						{
							OFFSET 0.0161 -0.0248 0.1809
						}
					}
				}
			}
		}
	}
	JOINT LowerBack
	{
		OFFSET	0.0000	0.7977	-0.3873
		CHANNELS 3 Yrotation Xrotation Zrotation
		JOINT Spine
		{
			OFFSET	0.0000	1.4131	0.1715
			CHANNELS 3 Yrotation Xrotation Zrotation
			JOINT Spine1
			{
				OFFSET	0.0000	1.4392	-0.1032
				CHANNELS 3 Yrotation Xrotation Zrotation
				JOINT LeftShoulder
				{
					OFFSET	0.2274	1.0382	0.4032
					CHANNELS 3 Yrotation Xrotation Zrotation
					JOINT LeftArm
					{
						OFFSET	1.4730	-0.2267	-0.0231
						CHANNELS 3 Yrotation Xrotation Zrotation
						JOINT LeftForeArm
						{
							OFFSET	1.6131	-1.8059	0.0081
							CHANNELS 3 Yrotation Xrotation Zrotation
							JOINT LeftHand
							{
								OFFSET	1.2197	-1.2423	1.6317
								CHANNELS 3 Yrotation Xrotation Zrotation
								JOINT LThumb
								{
									OFFSET	0.0109	-0.0753	0.4387
									CHANNELS 3 Yrotation Xrotation Zrotation
									End Site
									{
										OFFSET -0.2090 -0.0868 0.2097
									}
								}
								JOINT LeftFingerBase
								{
									OFFSET	0.1071	-0.1567	0.2607
									CHANNELS 3 Yrotation Xrotation Zrotation
									JOINT LeftHandFinger1
									{
										OFFSET	0.1706	-0.2492	0.6830
										CHANNELS 3 Yrotation Xrotation Zrotation
										End Site
										{
											OFFSET 0.0335 -0.1507 0.2071
										}
									}
								}
							}
						}
					}
				}
				JOINT Neck
				{
					OFFSET	0.0000	1.7498	0.2381
					CHANNELS 3 Yrotation Xrotation Zrotation
					JOINT Neck1
					{
						OFFSET	0.0000	0.5043	0.1959
						CHANNELS 3 Yrotation Xrotation Zrotation
						JOINT Head
						{
							OFFSET	0.0000	0.5044	0.1959
							CHANNELS 3 Yrotation Xrotation Zrotation
							End Site
							{
								OFFSET 0.0000 1.4798 -0.0693
							}
						}
					}
				}
				JOINT RightShoulder
				{
					OFFSET	-0.2274	1.0382	0.4032
					CHANNELS 3 Yrotation Xrotation Zrotation
					JOINT RightArm
					{
						OFFSET	-1.4730	-0.2267	-0.0231
						CHANNELS 3 Yrotation Xrotation Zrotation
						JOINT RightForeArm
						{
							OFFSET	-1.6131	-1.8059	0.0081
							CHANNELS 3 Yrotation Xrotation Zrotation
							JOINT RightHand
							{
								OFFSET	-1.2197	-1.2423	1.6317
								CHANNELS 3 Yrotation Xrotation Zrotation
								JOINT RThumb
								{
									OFFSET	-0.0109	-0.0753	0.4387
									CHANNELS 3 Yrotation Xrotation Zrotation
									End Site
									{
										OFFSET 0.2090 -0.0868 0.2097
									}
								}
								JOINT RightFingerBase
								{
									OFFSET	-0.1071	-0.1567	0.2607
									CHANNELS 3 Yrotation Xrotation Zrotation
									JOINT RightHandFinger1
									{
										OFFSET	-0.1706	-0.2492	0.6830
										CHANNELS 3 Yrotation Xrotation Zrotation
										End Site
										{
											OFFSET -0.0335 -0.1507 0.2071
										}
									}
								}
							}
						}
					}
				}
			}
		}
	}
	JOINT RHipJoint
	{
		OFFSET	0.0000	0.0000	0.0000
		CHANNELS 3 Yrotation Xrotation Zrotation
		JOINT RightUpLeg
		{
			OFFSET	-1.0138	-0.0809	-0.0827
			CHANNELS 3 Yrotation Xrotation Zrotation
			JOINT RightLeg
			{
				OFFSET	-0.4110	-3.9095	0.3245
				CHANNELS 3 Yrotation Xrotation Zrotation
				JOINT RightFoot
				{
					OFFSET	-0.3810	-4.0555	-0.1470
					CHANNELS 3 Yrotation Xrotation Zrotation
					JOINT RightToeBase
					{
						OFFSET	-0.1396	-0.4462	1.3079
						CHANNELS 3 Yrotation Xrotation Zrotation
						End Site
						{
							OFFSET -0.0161 -0.0248 0.1809
						}
					}
				}
			}
		}
	}
}
MOTION
Frames: 5
Frame Time: 0.0333333
-0.0558 7.9354 -0.6458 -4.3447 12.2894 0.5149 0.0000 -0.0000 0.0000 8.8786 -33.8039 -2.5981 4.6469 45.0529 -0.0511 -1.5958 -23.3535 2.4312 -0.0000 0.0000 0.0000 0.0000 -0.0000 0.0000 -0.6769 5.0876 -1.3877 -1.4954 10.1560 -2.8935 -8.1561 1.2882 16.4232 47.3821 -22.8678 -14.9362 -12.1129 -12.0764 -0.5671 38.7521 8.9363 -59.7725 42.2592 3.1887 4.7003 0.4144 9.6117 -2.7444 -6.9302 -2.9159 -3.0014 1.1496 6.7523 1.1412 1.1496 6.7521 1.1412 5.3729 -37.1583 -1.2585 10.7975 0.8518 -4.6877 -32.5347 -10.5390 5.2784 7.2355 -6.8624 1.4676 -50.9113 5.3034 47.1099 -28.7190 1.2574 -10.8089 -2.2771 3.4793 -0.0900 4.2453 -5.9765 0.8300 0.0000 -0.0000 0.0000 -4.5065 -35.2205 -1.2827 -8.6815 44.6417 -2.8420 0.8148 -21.7134 0.5887 0.0000 -0.0001 -0.0000 
-0.0416 7.9832 -0.5941 -4.7756 12.0200 0.3987 0.0000 -0.0000 0.0000 8.9567 -32.3065 -2.7100 5.0210 43.5502 0.4579 -1.5291 -23.1215 2.2286 -0.0000 -0.0000 -0.0000 0.0000 -0.0000 0.0000 -0.5455 4.8728 -1.3833 -1.2243 9.7300 -2.8715 -8.6643 1.3591 16.4059 44.5068 -21.7333 -13.2578 -5.1959 -4.6202 -1.7129 39.0889 9.0696 -59.9334 42.1235 2.1462 5.0758 0.3251 10.0877 -3.0106 -7.0458 -2.7880 -3.0962 0.5700 6.5459 1.1728 0.5700 6.5459 1.1728 2.4239 -37.9103 0.3505 10.0223 0.7920 -4.1992 -32.8020 -10.5277 5.8302 7.1878 -6.8103 1.4742 -50.4192 5.8916 46.8308 -28.3886 1.0675 -10.7181 -2.7152 3.3139 -0.3882 4.3553 -5.8455 0.9182 0.0000 -0.0000 0.0000 -4.4606 -33.7905 -1.1483 -8.1348 43.0044 -2.6230 0.7522 -21.2157 0.7548 -0.0000 -0.0000 0.0000 
-0.0286 8.0262 -0.5355 -5.4128 11.5815 0.2230 0.0000 -0.0000 0.0000 9.0952 -30.6340 -2.7296 5.5378 42.1674 1.0476 -1.4588 -23.0309 1.9683 -0.0000 -0.0000 0.0000 0.0000 -0.0000 0.0000 -0.3779 4.6390 -1.3568 -0.8781 9.2669 -2.8034 -9.0452 1.3707 15.5658 43.1485 -21.1105 -12.3217 -0.6887 0.4040 -1.9710 39.4456 7.9707 -60.5354 40.8410 0.1358 4.9751 0.2576 10.7151 -3.2980 -7.2418 -2.5723 -3.2572 0.1800 6.4638 1.2309 0.1800 6.4638 1.2309 0.5240 -38.1959 1.3396 9.4347 0.7524 -3.7668 -34.0700 -10.6748 5.1299 8.5424 -8.2826 1.2692 -50.7934 6.4294 45.7773 -28.1555 0.9384 -10.5610 -2.9832 3.3564 -0.5268 4.4548 -5.7271 0.9982 0.0000 -0.0000 0.0000 -4.3521 -32.2199 -0.9236 -7.5397 41.4490 -2.4976 0.6891 -20.7775 0.9453 -0.0000 0.0000 0.0000 
-0.0211 8.0537 -0.4847 -6.0429 11.1460 0.0314 0.0000 -0.0000 0.0000 9.2736 -29.2862 -2.6418 5.9911 41.2740 1.4939 -1.4093 -23.1045 1.7454 -0.0000 0.0000 -0.0000 0.0000 -0.0000 0.0000 -0.2959 4.4407 -1.3190 -0.7044 8.8728 -2.7212 -8.9865 1.2943 14.1611 43.5219 -20.0592 -12.5753 -0.5211 0.5916 -1.9730 41.6051 8.0592 -59.7820 39.0545 -1.8355 4.4048 0.2881 11.2630 -3.4686 -7.4363 -2.3593 -3.4172 0.0255 6.4540 1.3134 0.0255 6.4541 1.3134 -0.1056 -38.1778 1.6035 8.9858 0.7334 -3.5290 -34.9639 -11.7820 3.7095 9.8490 -9.6867 1.0391 -51.2680 6.6743 45.1473 -28.1300 0.9208 -10.3488 -3.1249 3.5348 -0.5465 4.5151 -5.6556 1.0466 0.0000 -0.0000 0.0000 -4.2294 -30.9616 -0.6716 -7.0551 40.3889 -2.4590 0.6445 -20.5315 1.0955 -0.0000 -0.0001 0.0000 
-0.0197 8.0637 -0.4511 -6.4710 10.8063 -0.1006 0.0000 -0.0000 0.0000 9.4300 -28.4820 -2.5267 6.2741 40.9524 1.7466 -1.3852 -23.2818 1.5971 0.0000 -0.0000 0.0000 0.0000 -0.0000 0.0000 -0.3137 4.3265 -1.2906 -0.7343 8.6443 -2.6654 -8.2255 1.1487 12.8176 44.4062 -20.1032 -13.0641 -1.2793 -0.2571 -1.9597 43.1727 8.2390 -59.0623 37.5945 -3.1062 3.4496 0.4081 11.6566 -3.5090 -7.5685 -2.2152 -3.5261 0.0654 6.4230 1.4045 0.0654 6.4228 1.4045 0.2567 -37.9621 1.3570 8.6439 0.7222 -3.3883 -35.2346 -13.8481 2.4537 10.9287 -10.8337 0.8255 -51.6281 6.7885 45.3278 -28.3000 1.0001 -10.1054 -3.2316 3.7184 -0.5314 4.5191 -5.6509 1.0499 0.0000 -0.0000 0.0000 -4.1323 -30.2223 -0.4877 -6.7836 39.9732 -2.4899 0.6233 -20.5140 1.1837 -0.0000 -0.0000 0.0000 
